<svg width="24" height="24" viewBox="0 0 24 24" fill="none" xmlns="http://www.w3.org/2000/svg">
<path d="M9.43785 6.06754C10.5778 4.02251 11.1478 3 12 3C12.8522 3 13.4222 4.02251 14.5622 6.06754L14.8571 6.59661C15.181 7.17774 15.343 7.46831 15.5956 7.66003C15.8481 7.85174 16.1626 7.92291 16.7917 8.06524L17.3644 8.19483C19.5781 8.6957 20.685 8.94614 20.9483 9.79296C21.2117 10.6398 20.4571 11.5222 18.9479 13.2869L18.5575 13.7435C18.1286 14.245 17.9142 14.4957 17.8177 14.8059C17.7213 15.1162 17.7537 15.4507 17.8185 16.1198L17.8775 16.729C18.1057 19.0835 18.2198 20.2608 17.5304 20.7842C16.8409 21.3076 15.8046 20.8304 13.7319 19.8761L13.1957 19.6292C12.6067 19.358 12.3122 19.2224 12 19.2224C11.6878 19.2224 11.3933 19.358 10.8043 19.6292L10.2681 19.8761C8.19541 20.8304 7.15906 21.3076 6.46963 20.7842C5.78021 20.2608 5.89429 19.0835 6.12246 16.729L6.18149 16.1198C6.24632 15.4507 6.27874 15.1162 6.18228 14.8059C6.08581 14.4957 5.87138 14.245 5.44253 13.7435L5.05209 13.2869C3.54292 11.5222 2.78834 10.6398 3.05168 9.79296C3.31502 8.94614 4.42187 8.6957 6.63558 8.19483L7.2083 8.06524C7.83737 7.92291 8.1519 7.85174 8.40445 7.66003C8.657 7.46831 8.81897 7.17774 9.14292 6.59661L9.43785 6.06754Z" fill="#F7DB70"/>
</svg>
