<svg width="25" height="24" viewBox="0 0 25 24" fill="none" xmlns="http://www.w3.org/2000/svg">
<path fill-rule="evenodd" clip-rule="evenodd" d="M21.4999 12.2042C21.4999 11.566 21.4415 10.9524 21.3329 10.3633H12.6836V13.8446H17.6261C17.4132 14.9696 16.7662 15.9228 15.7935 16.561V18.8192H18.7615C20.4981 17.2524 21.4999 14.9451 21.4999 12.2042Z" fill="#4285F4"/>
<path fill-rule="evenodd" clip-rule="evenodd" d="M12.6834 21.0009C15.163 21.0009 17.2419 20.195 18.7613 18.8205L15.7934 16.5623C14.971 17.1023 13.919 17.4214 12.6834 17.4214C10.2915 17.4214 8.26691 15.8382 7.54474 13.7109H4.47656V16.0428C5.98769 18.9841 9.09345 21.0009 12.6834 21.0009Z" fill="#34A853"/>
<path fill-rule="evenodd" clip-rule="evenodd" d="M7.54499 13.7108C7.36132 13.1708 7.25696 12.594 7.25696 12.0008C7.25696 11.4076 7.36132 10.8308 7.54499 10.2908V7.95898H4.47681C3.85482 9.17398 3.5 10.5485 3.5 12.0008C3.5 13.4531 3.85482 14.8276 4.47681 16.0426L7.54499 13.7108Z" fill="#FBBC05"/>
<path fill-rule="evenodd" clip-rule="evenodd" d="M12.6834 6.57954C14.0318 6.57954 15.2423 7.03363 16.1941 7.92545L18.8281 5.34409C17.2377 3.89182 15.1588 3 12.6834 3C9.09345 3 5.98769 5.01682 4.47656 7.95818L7.54474 10.29C8.26691 8.16272 10.2915 6.57954 12.6834 6.57954Z" fill="#EA4335"/>
</svg>
