<svg width="24" height="24" viewBox="0 0 24 24" fill="none" xmlns="http://www.w3.org/2000/svg">
<path fill-rule="evenodd" clip-rule="evenodd" d="M4.24971 9.76977C5.68725 8.10226 8.06337 6.25 11.5429 6.25C15.0225 6.25 17.3986 8.10226 18.8362 9.76977C19.2208 10.216 19.4542 10.4914 19.6075 10.8012C19.7507 11.0906 19.8359 11.4394 19.8359 12.0307C19.8359 12.622 19.7507 12.9707 19.6075 13.2602C19.4542 13.5699 19.2208 13.8454 18.8362 14.2916C17.3986 15.9591 15.0225 17.8113 11.5429 17.8113C8.06337 17.8113 5.68725 15.9591 4.24971 14.2916C3.86505 13.8454 3.63164 13.5699 3.47839 13.2602C3.33516 12.9707 3.25 12.622 3.25 12.0307C3.25 11.4394 3.33516 11.0906 3.47839 10.8012C3.63164 10.4914 3.86505 10.216 4.24971 9.76977ZM11.5429 5.25C7.66829 5.25 5.0392 7.32246 3.4923 9.11682L3.46643 9.14682L3.46643 9.14682C3.11409 9.55542 2.79728 9.92281 2.58211 10.3577C2.35168 10.8234 2.25 11.3349 2.25 12.0307C2.25 12.7264 2.35168 13.2379 2.58211 13.7037C2.79728 14.1385 3.11409 14.5059 3.46644 14.9145L3.4923 14.9445C5.03921 16.7389 7.66829 18.8113 11.5429 18.8113C15.4176 18.8113 18.0467 16.7389 19.5936 14.9445L19.6194 14.9145C19.9718 14.5059 20.2886 14.1385 20.5038 13.7037C20.7342 13.2379 20.8359 12.7264 20.8359 12.0307C20.8359 11.3349 20.7342 10.8234 20.5038 10.3577C20.2886 9.92281 19.9718 9.55541 19.6194 9.14682L19.5936 9.11682C18.0467 7.32246 15.4176 5.25 11.5429 5.25ZM9.53051 12.0307C9.53051 10.9193 10.4314 10.0184 11.5428 10.0184C12.6541 10.0184 13.555 10.9193 13.555 12.0307C13.555 13.142 12.6541 14.0429 11.5428 14.0429C10.4314 14.0429 9.53051 13.142 9.53051 12.0307ZM11.5428 9.0184C9.87915 9.0184 8.53051 10.367 8.53051 12.0307C8.53051 13.6943 9.87915 15.0429 11.5428 15.0429C13.2064 15.0429 14.555 13.6943 14.555 12.0307C14.555 10.367 13.2064 9.0184 11.5428 9.0184Z" fill="#1C1C1C"/>
</svg>
